<svg xmlns="http://www.w3.org/2000/svg" width="22.513" height="22.734" viewBox="0 0 22.513 22.734">
  <g id="mask14" transform="translate(0 0)">
    <path id="Vector" d="M4.558,21.6A2.268,2.268,0,1,1,6.82,23.871,2.271,2.271,0,0,1,4.558,21.6Zm13.629-2.273A2.273,2.273,0,1,0,20.461,21.6,2.271,2.271,0,0,0,18.187,19.324Zm-1.648-5.684H8.071L6.82,15.914h12.5a1.137,1.137,0,1,1,0,2.273H6.82a2.278,2.278,0,0,1-1.989-3.376l1.535-2.774L2.273,3.41H1.137a1.137,1.137,0,0,1,0-2.273H3a1.128,1.128,0,0,1,1.023.648l4.535,9.583h7.98L20.393,4.4A1.132,1.132,0,1,1,22.37,5.5L18.528,12.47A2.263,2.263,0,0,1,16.539,13.641Z" transform="translate(0 -1.137)" fill="#858c94"/>
  </g>
</svg>
