<svg xmlns="http://www.w3.org/2000/svg" width="287.565" height="214.271" viewBox="0 0 287.565 214.271">
  <defs>
    <style>
      .cls-1 {
        fill: #ebebeb;
      }

      .cls-2, .cls-8 {
        fill: #e0e0e0;
      }

      .cls-3 {
        fill: #f5f5f5;
      }

      .cls-4 {
        fill: #e6e6e6;
      }

      .cls-5 {
        fill: #f0f0f0;
      }

      .cls-10, .cls-11, .cls-20, .cls-6 {
        fill: #fff;
      }

      .cls-7 {
        fill: #fafafa;
      }

      .cls-8 {
        opacity: 0.6;
      }

      .cls-9 {
        fill: #407bff;
      }

      .cls-10 {
        opacity: 0.8;
      }

      .cls-11, .cls-12 {
        opacity: 0.3;
      }

      .cls-13 {
        fill: #263238;
      }

      .cls-14 {
        fill: #803e3c;
      }

      .cls-15 {
        fill: #7f3e3b;
      }

      .cls-16 {
        fill: #630f0f;
      }

      .cls-17 {
        opacity: 0.2;
      }

      .cls-18, .cls-20 {
        opacity: 0.4;
      }

      .cls-19 {
        opacity: 0.5;
      }
    </style>
  </defs>
  <g id="Login-rafiki" transform="translate(0 -55)">
    <g id="freepik--background-complete--inject-11" transform="translate(0 55)">
      <rect id="Rectangle_36"  class="cls-1" width="287.565" height="0.144" transform="translate(0 188.298)"/>
      <rect id="Rectangle_37"  class="cls-1" width="12.469" height="0.144" transform="translate(246.282 197.552)"/>
      <rect id="Rectangle_38"  class="cls-1" width="19.618" height="0.144" transform="translate(178.613 194.572)"/>
      <rect id="Rectangle_39"  class="cls-1" width="25.611" height="0.144" transform="translate(228.091 192.214)"/>
      <rect id="Rectangle_40"  class="cls-1" width="6.407" height="0.144" transform="translate(93.102 195.113)"/>
      <rect id="Rectangle_41"  class="cls-1" width="22.079" height="0.144" transform="translate(65.898 195.113)"/>
      <rect id="Rectangle_42"  class="cls-1" width="15.931" height="0.144" transform="translate(38.137 192.686)"/>
      <path id="Path_11" class="cls-1" d="M152.54,217.647H41.488a3.284,3.284,0,0,1-3.278-3.284V58.255A3.284,3.284,0,0,1,41.488,55H152.54a3.284,3.284,0,0,1,3.284,3.284V214.363A3.284,3.284,0,0,1,152.54,217.647ZM41.488,55.115a3.14,3.14,0,0,0-3.134,3.14V214.363a3.14,3.14,0,0,0,3.134,3.14H152.54a3.146,3.146,0,0,0,3.14-3.14V58.255a3.146,3.146,0,0,0-3.14-3.14Z" transform="translate(-16.234 -55)"/>
      <path id="Path_12" class="cls-1" d="M368.842,217.647H257.784a3.29,3.29,0,0,1-3.284-3.284V58.255A3.29,3.29,0,0,1,257.784,55H368.842a3.284,3.284,0,0,1,3.272,3.255V214.363A3.284,3.284,0,0,1,368.842,217.647ZM257.784,55.115a3.146,3.146,0,0,0-3.14,3.14V214.363a3.146,3.146,0,0,0,3.14,3.14H368.842a3.146,3.146,0,0,0,3.14-3.14V58.255a3.146,3.146,0,0,0-3.14-3.14Z" transform="translate(-108.129 -55)"/>
      <path id="Path_13" class="cls-2" d="M113.908,156.862a12.026,12.026,0,0,0,0-24.052H112.43v24.052Z" transform="translate(-47.768 -88.059)"/>
      <circle id="Ellipse_9"  class="cls-3" cx="12.026" cy="12.026" r="12.026" transform="translate(52.624 44.751)"/>
      <path id="Path_14"  class="cls-2" d="M99.554,136.227a16.1,16.1,0,0,1-16.1-16.1v-9.61a1.513,1.513,0,1,1,3.025,0v9.616a13.09,13.09,0,0,0,13.073,13.078,1.513,1.513,0,1,1,0,3.019Z" transform="translate(-35.455 -77.943)"/>
      <path id="Path_15"  class="cls-3" d="M60.778,115.741H87.533a2.8,2.8,0,0,0,2.7-3.508l-2.329-8.771a2.8,2.8,0,0,0-2.7-2.082H63.1a2.8,2.8,0,0,0-2.7,2.082l-2.3,8.759a2.789,2.789,0,0,0,2.68,3.52Z" transform="translate(-24.643 -74.705)"/>
      <path id="Path_16"  class="cls-2" d="M409.188,156.862a12.026,12.026,0,1,0,0-24.052H407.71v24.052Z" transform="translate(-173.223 -88.059)"/>
      <circle id="Ellipse_10"  class="cls-3" cx="12.026" cy="12.026" r="12.026" transform="translate(222.461 44.751)"/>
      <path id="Path_17"  class="cls-2" d="M394.854,136.227a16.1,16.1,0,0,1-16.1-16.1v-9.61a1.513,1.513,0,0,1,3.025,0v9.616a13.09,13.09,0,0,0,13.073,13.078,1.513,1.513,0,1,1,0,3.019Z" transform="translate(-160.919 -77.943)"/>
      <path id="Path_18"  class="cls-3" d="M356.08,115.75h26.755a2.8,2.8,0,0,0,2.7-3.508l-2.3-8.759a2.8,2.8,0,0,0-2.7-2.082H358.4a2.8,2.8,0,0,0-2.7,2.082l-2.3,8.759a2.789,2.789,0,0,0,2.68,3.508Z" transform="translate(-150.109 -74.714)"/>
      <rect id="Rectangle_43" class="cls-4" width="8.748" height="33.892" transform="translate(85.804 150.029) rotate(180)"/>
      <path id="Path_19"  class="cls-5" d="M92.75,286.547h29.027l4.382-39.667H97.132Z" transform="translate(-39.407 -136.524)"/>
      <path id="Path_20"  class="cls-3" d="M87.28,286.547h29.987l4.382-39.667H91.668Z" transform="translate(-37.083 -136.524)"/>
      <path id="Path_21"  class="cls-6" d="M117.211,285.735,120.9,252.32H95.942L92.25,285.735Z" transform="translate(-39.194 -138.835)"/>
      <path id="Path_22"  class="cls-3" d="M118.424,283.626l.178-1.34c.926-8.385-4.308-15.856-11.106-15.856h0l-.155,1.363c-.926,8.38,4.308,15.851,11.112,15.851Z" transform="translate(-45.561 -144.83)"/>
      <rect id="Rectangle_44" class="cls-4" width="25.789" height="38.275" transform="translate(59.773 188.298) rotate(180)"/>
      <path id="Path_23" class="cls-5" d="M61.674,376.949H59.08V369.57h5.314Z" transform="translate(-25.101 -188.651)"/>
      <rect id="Rectangle_45" class="cls-4" width="25.789" height="38.275" transform="translate(132.05 188.298) rotate(180)"/>
      <rect id="Rectangle_46" class="cls-5" width="74.543" height="33.743" transform="translate(108.521 183.772) rotate(180)"/>
      <path id="Path_24"  class="cls-5" d="M182.17,376.949h2.594V369.57H179.45Z" transform="translate(-76.243 -188.651)"/>
      <rect id="Rectangle_47"  class="cls-4" width="70.517" height="13.619" transform="translate(106.508 165.753) rotate(180)"/>
      <path id="Path_25"  class="cls-5" d="M107.731,331.567h9.4a14.861,14.861,0,0,0,10.8-4.647H96.93A14.878,14.878,0,0,0,107.731,331.567Z" transform="translate(-41.183 -170.53)"/>
      <rect id="Rectangle_48" class="cls-4" width="70.517" height="13.619" transform="translate(106.508 181.569) rotate(180)"/>
      <path id="Path_26"  class="cls-5" d="M107.731,359.027h9.4a14.861,14.861,0,0,0,10.8-4.647H96.93A14.879,14.879,0,0,0,107.731,359.027Z" transform="translate(-41.183 -182.197)"/>
      <path id="Path_27"  class="cls-4" d="M179.831,292.326h.667c0-1.375,0-4.854.069-12.831.121-14.465.351-15.344.351-15.344l-1.587,6.677C178.324,278.218,179.624,285.648,179.831,292.326Z" transform="translate(-76.032 -143.861)"/>
      <path id="Path_28"  class="cls-4" d="M168.964,270.894c-2.3-2.72-7.16-3.514-12.153-4.193-1.961-.265,5.147,4.216,8.627,7.4,2.7,2.473,4.428,3.157,5.176,5.619C170.994,276.646,170.931,273.258,168.964,270.894Z" transform="translate(-66.482 -144.941)"/>
      <path id="Path_29"  class="cls-4" d="M182.1,279.379c2.3-2.72,7.16-3.508,12.153-4.187,1.961-.265-5.176,4.216-8.627,7.4-2.7,2.473-4.429,3.157-5.176,5.619C180.072,285.136,180.112,281.725,182.1,279.379Z" transform="translate(-76.589 -148.548)"/>
      <path id="Path_30"  class="cls-4" d="M180.887,257.46c1.725-3.255,6.016-6.326,10.853-7.477,1.9-.454-4.4,6-6.792,10.174-1.858,3.232-4.319,7.04-4.7,9.777C179.668,264.54,179.173,260.732,180.887,257.46Z" transform="translate(-76.352 -137.833)"/>
      <path id="Path_31"  class="cls-5" d="M178.311,312.481h0c-2.036,0-3.721-1.018-3.842-2.329l-.339-2.232H182.5l-.345,2.232C182.038,311.463,180.382,312.481,178.311,312.481Z" transform="translate(-73.982 -162.458)"/>
      <path id="Path_32"  class="cls-5" d="M182.44,307.57H172.99l-.27-2.49h9.99Z" transform="translate(-73.383 -161.251)"/>
      <rect id="Rectangle_49"  class="cls-4" width="92.142" height="84.044" transform="translate(189.649 98.761) rotate(180)"/>
      <rect id="Rectangle_50"  class="cls-3" width="93.309" height="84.044" transform="translate(188.746 98.761) rotate(180)"/>
      <rect id="Rectangle_51"  class="cls-7" width="76.515" height="85.867" transform="translate(185.02 18.485) rotate(90)"/>
      <path id="Path_33"  class="cls-6" d="M269.944,163.655,236.15,87.14H224.67l33.795,76.515Z" transform="translate(-95.455 -68.655)"/>
      <path id="Path_34"  class="cls-6" d="M246.967,163.655,213.172,87.14h-7.9l33.795,76.515Z" transform="translate(-87.213 -68.655)"/>
      <rect id="Rectangle_52" class="cls-4" width="76.515" height="4.44" transform="translate(131.038 18.479) rotate(90)"/>
      <rect id="Rectangle_53" class="cls-4" width="76.515" height="4.44" transform="translate(160.553 18.479) rotate(90)"/>
      <rect id="Rectangle_54" class="cls-3" width="81.703" height="5.613" transform="translate(130.238 15.684) rotate(90)"/>
      <rect id="Rectangle_55" class="cls-3" width="81.703" height="5.613" transform="translate(159.754 15.684) rotate(90)"/>
      <rect id="Rectangle_56" class="cls-4" width="76.515" height="0.397" transform="translate(99.555 18.485) rotate(90)"/>
      <path id="Path_35"  class="cls-4" d="M162.863,72.17h99.82a.489.489,0,0,1,.483.483h0a.483.483,0,0,1-.483.477h-99.82a.483.483,0,0,1-.483-.477h0A.489.489,0,0,1,162.863,72.17Z" transform="translate(-68.99 -62.295)"/>
      <path id="Path_36"  class="cls-4" d="M329.27,75.692h0a.65.65,0,0,0,.644-.65V73.65a.644.644,0,0,0-.644-.65h0a.65.65,0,0,0-.65.644v1.392a.656.656,0,0,0,.65.656Z" transform="translate(-139.621 -62.648)"/>
      <path id="Path_37"  class="cls-4" d="M175.324,75.692h0a.656.656,0,0,0,.65-.65V73.65a.65.65,0,0,0-.65-.65h0a.644.644,0,0,0-.644.644v1.392A.65.65,0,0,0,175.324,75.692Z" transform="translate(-74.216 -62.648)"/>
      <rect id="Rectangle_57" class="cls-8" width="93.246" height="65.818" transform="translate(187.268 76.17) rotate(180)"/>
      <rect id="Rectangle_58" class="cls-7" width="22.269" height="13.631" rx="5.38" transform="translate(176.536 117.885)"/>
      <rect id="Rectangle_59" class="cls-4" width="22.269" height="2.922" rx="1.461" transform="translate(176.536 115.365)"/>
      <path id="Path_38"  class="cls-5" d="M307.52,310s.293,9.587,11.462,9.587S330.445,310,330.445,310Z" transform="translate(-130.656 -163.342)"/>
      <path id="Path_39"  class="cls-5" d="M351.8,310s.293,9.587,11.462,9.587S374.725,310,374.725,310Z" transform="translate(-149.469 -163.342)"/>
      <rect id="Rectangle_60" class="cls-5" width="30.597" height="19.808" rx="7.4" transform="translate(193.382 111.713)"/>
      <rect id="Rectangle_61" class="cls-3" width="30.597" height="4.014" rx="2.007" transform="translate(193.382 108.251)"/>
      <rect id="Rectangle_62" class="cls-4" width="2.899" height="47.529" transform="translate(171.349 188.298) rotate(180)"/>
      <rect id="Rectangle_63" class="cls-4" width="15.695" height="9.248" transform="translate(236.453 131.515)"/>
      <rect id="Rectangle_64" class="cls-3" width="78.034" height="9.248" transform="translate(236.448 140.769) rotate(180)"/>
      <rect id="Rectangle_65" class="cls-4" width="15.695" height="9.248" transform="translate(236.453 156.217)"/>
      <rect id="Rectangle_66" class="cls-3" width="78.034" height="9.248" transform="translate(236.448 165.465) rotate(180)"/>
      <rect id="Rectangle_67" class="cls-4" width="2.899" height="47.529" transform="translate(249.382 188.298) rotate(180)"/>
      <rect id="Rectangle_68" class="cls-3" width="2.899" height="47.529" transform="translate(236.453 188.298) rotate(180)"/>
      <rect id="Rectangle_69" class="cls-3" width="2.899" height="47.529" transform="translate(161.313 188.298) rotate(180)"/>
    </g>
    <g id="freepik--Shadow--inject-11" transform="translate(32.271 256.25)">
      <ellipse id="freepik--path--inject-11" class="cls-3" cx="111.512" cy="6.51" rx="111.512" ry="6.51"/>
    </g>
    <g id="freepik--Login--inject-11" transform="translate(65.211 93.223)">
      <path id="Path_40"  class="cls-9" d="M197.944,264.882H124.574a4.676,4.676,0,0,1-4.6-4.394l-6.579-127.42a4.124,4.124,0,0,1,4.164-4.388h73.369a4.67,4.67,0,0,1,4.6,4.388l6.568,127.42a4.129,4.129,0,0,1-4.152,4.394Z" transform="translate(-113.385 -124.527)"/>
      <path id="Path_41"  class="cls-10" d="M197.944,264.882H124.574a4.676,4.676,0,0,1-4.6-4.394l-6.579-127.42a4.124,4.124,0,0,1,4.164-4.388h73.369a4.67,4.67,0,0,1,4.6,4.388l6.568,127.42a4.129,4.129,0,0,1-4.152,4.394Z" transform="translate(-113.385 -124.527)"/>
      <rect id="Rectangle_70"  class="cls-9" width="8.115" height="0.575" transform="translate(62.186)"/>
      <rect id="Rectangle_71"  class="cls-9" width="2.973" height="0.575" transform="translate(56.4)"/>
      <path id="Path_42" class="cls-9" d="M206.157,255.211H135.991a4.469,4.469,0,0,1-4.417-4.193l-6.28-121.87a3.945,3.945,0,0,1,3.986-4.2h70.166a4.469,4.469,0,0,1,4.411,4.2l6.28,121.87a3.94,3.94,0,0,1-3.98,4.193Z" transform="translate(-118.441 -122.943)"/>
      <path id="Path_43" class="cls-6" d="M208.225,254.483H138.059a1.679,1.679,0,0,1-1.616-1.541l-6.286-121.864a1.147,1.147,0,0,1,1.185-1.248h70.166a1.679,1.679,0,0,1,1.61,1.541l6.315,121.864a1.15,1.15,0,0,1-1.179,1.248Zm-76.883-124.51a1.029,1.029,0,0,0-.771.311,1.058,1.058,0,0,0-.27.788l6.28,121.864a1.536,1.536,0,0,0,1.472,1.4h70.166a1,1,0,0,0,.765-.311,1.012,1.012,0,0,0,.27-.788L202.98,131.377a1.53,1.53,0,0,0-1.467-1.4Z" transform="translate(-120.509 -125.016)"/>
      <ellipse id="Ellipse_11"  class="cls-11" cx="20.705" cy="21.797" rx="20.705" ry="21.797" transform="translate(17.502 33.632) rotate(-45.74)"/>
      <path id="Path_44"  class="cls-6" d="M200.585,167.914a16.512,16.512,0,0,1-1.651,8.19,16.144,16.144,0,0,1-14.649,9,18.26,18.26,0,0,1-15.575-9,17.7,17.7,0,0,1-2.5-8.19,16.155,16.155,0,0,1,16.3-17.185A18.3,18.3,0,0,1,200.585,167.914Z" transform="translate(-135.817 -133.895)"/>
      <path id="Path_45"  class="cls-9" d="M200.773,191.451a16.144,16.144,0,0,1-14.649,9,18.26,18.26,0,0,1-15.575-9,25.973,25.973,0,0,1,14.873-4.6A28.262,28.262,0,0,1,200.773,191.451Z" transform="translate(-137.673 -149.242)"/>
      <ellipse id="Ellipse_12"  class="cls-9" cx="7.459" cy="7.856" rx="7.459" ry="7.856" transform="translate(36.432 27.996) rotate(-45.74)"/>
      <path id="Path_46" class="cls-6" d="M206.133,260.43H151.191a1.892,1.892,0,0,1-1.869-1.777l-.414-8.052a1.668,1.668,0,0,1,1.685-1.771h54.942A1.892,1.892,0,0,1,207.4,250.6l.414,8.052a1.668,1.668,0,0,1-1.685,1.777Z" transform="translate(-128.476 -175.576)"/>
      <path id="Path_47" class="cls-12" d="M200.756,237.2H177.809a1.892,1.892,0,0,1-1.875-1.783l-.086-1.725a1.668,1.668,0,0,1,1.685-1.777h22.942a1.892,1.892,0,0,1,1.869,1.777l.092,1.725a1.679,1.679,0,0,1-1.679,1.783Z" transform="translate(-139.922 -168.387)"/>
      <path id="Path_48" class="cls-12" d="M206.1,328.909H171.729a3.227,3.227,0,0,1-3.18-3.025l-.2-3.968a2.876,2.876,0,0,1,2.876-3.025h34.364a3.227,3.227,0,0,1,3.18,3.025l.2,3.968a2.876,2.876,0,0,1-2.864,3.025Z" transform="translate(-136.735 -205.342)"/>
      <path id="Path_49" class="cls-6" d="M207.879,294.286H152.931a1.9,1.9,0,0,1-1.869-1.777l-.414-8.052a1.674,1.674,0,0,1,1.685-1.777h54.942a1.892,1.892,0,0,1,1.869,1.777l.42,8.052a1.679,1.679,0,0,1-1.685,1.777Z" transform="translate(-129.215 -189.957)"/>
      <path id="Path_50" class="cls-13" d="M162.091,257.457a1.852,1.852,0,0,1-1.869,1.967,2.094,2.094,0,0,1-2.065-1.967,1.846,1.846,0,0,1,1.863-1.967,2.1,2.1,0,0,1,2.07,1.967Z" transform="translate(-132.406 -178.405)"/>
      <path id="Path_51" class="cls-13" d="M172.625,257.457a1.846,1.846,0,0,1-1.863,1.967,2.088,2.088,0,0,1-2.065-1.967,1.846,1.846,0,0,1,1.863-1.967A2.088,2.088,0,0,1,172.625,257.457Z" transform="translate(-136.884 -178.405)"/>
      <path id="Path_52" class="cls-13" d="M183.091,257.457a1.846,1.846,0,0,1-1.863,1.967,2.1,2.1,0,0,1-2.07-1.967,1.852,1.852,0,0,1,1.869-1.967A2.093,2.093,0,0,1,183.091,257.457Z" transform="translate(-141.328 -178.405)"/>
      <path id="Path_53" class="cls-13" d="M193.641,257.457a1.852,1.852,0,0,1-1.863,1.967,2.1,2.1,0,0,1-2.07-1.967,1.852,1.852,0,0,1,1.863-1.967,2.1,2.1,0,0,1,2.07,1.967Z" transform="translate(-145.811 -178.405)"/>
      <path id="Path_54" class="cls-13" d="M163.861,291.3A1.846,1.846,0,0,1,162,293.264a2.1,2.1,0,0,1-2.07-1.967,1.852,1.852,0,0,1,1.869-1.967A2.093,2.093,0,0,1,163.861,291.3Z" transform="translate(-133.158 -192.783)"/>
      <path id="Path_55" class="cls-13" d="M174.371,291.3a1.852,1.852,0,0,1-1.863,1.967,2.1,2.1,0,0,1-2.07-1.967,1.846,1.846,0,0,1,1.863-1.967A2.1,2.1,0,0,1,174.371,291.3Z" transform="translate(-137.623 -192.783)"/>
      <path id="Path_56" class="cls-13" d="M184.881,291.3a1.852,1.852,0,0,1-1.869,1.967,2.088,2.088,0,0,1-2.065-1.967,1.846,1.846,0,0,1,1.863-1.967A2.1,2.1,0,0,1,184.881,291.3Z" transform="translate(-142.088 -192.783)"/>
      <path id="Path_57" class="cls-13" d="M195.381,291.3a1.846,1.846,0,0,1-1.863,1.967,2.1,2.1,0,0,1-2.07-1.967,1.852,1.852,0,0,1,1.869-1.967A2.088,2.088,0,0,1,195.381,291.3Z" transform="translate(-146.55 -192.783)"/>
      <path id="Path_58" class="cls-13" d="M205.891,291.3a1.846,1.846,0,0,1-1.863,1.967,2.1,2.1,0,0,1-2.07-1.967,1.852,1.852,0,0,1,1.863-1.967,2.1,2.1,0,0,1,2.07,1.967Z" transform="translate(-151.015 -192.783)"/>
      <path id="Path_59" class="cls-13" d="M216.4,291.3a1.852,1.852,0,0,1-1.869,1.967,2.093,2.093,0,0,1-2.065-1.967,1.846,1.846,0,0,1,1.863-1.967A2.1,2.1,0,0,1,216.4,291.3Z" transform="translate(-155.48 -192.783)"/>
    </g>
    <g id="freepik--Character--inject-11" transform="translate(135.225 83.523)">
      <path id="Path_60" class="cls-14" d="M329.24,176.62c.144.219.219.334.311.489l.259.426c.167.288.316.575.46.857.288.575.575,1.15.805,1.725a31.755,31.755,0,0,1,1.242,3.5,36.678,36.678,0,0,1,1.369,7.212l.04.454a2.636,2.636,0,0,1,0,.276v.3a7.359,7.359,0,0,1-.069,1.2,9.856,9.856,0,0,1-.575,2.145,14.844,14.844,0,0,1-1.99,3.451,24.667,24.667,0,0,1-5.354,5.067l-1.587-1.858a32.985,32.985,0,0,0,3.819-5.285,12.078,12.078,0,0,0,1.15-2.715,5.484,5.484,0,0,0,.19-1.231,2.7,2.7,0,0,0,0-.535v-.121a.752.752,0,0,0,0-.161l-.069-.4a45.592,45.592,0,0,0-1.564-6.326c-.334-1.029-.742-2.024-1.15-3-.2-.489-.431-.966-.661-1.426l-.357-.679-.178-.316-.15-.253Z" transform="translate(-272.946 -135.196)"/>
      <path id="Path_61" class="cls-15" d="M323.7,222.1l2.082,4.4,1.651-3.721s-1.467-3.221-3.451-2.922Z" transform="translate(-272.755 -153.557)"/>
      <path id="Path_62" class="cls-15" d="M328.81,228.89l1.656-2.715-1.5-1.225-1.651,3.721Z" transform="translate(-274.293 -155.73)"/>
      <path id="Path_63" class="cls-9" d="M312.808,407.317a5.908,5.908,0,0,0,1.277-.173.127.127,0,0,0,.086-.092.115.115,0,0,0-.052-.115c-.167-.109-1.628-1.052-2.191-.8a.391.391,0,0,0-.224.322.65.65,0,0,0,.19.575A1.363,1.363,0,0,0,312.808,407.317Zm.949-.339a2.3,2.3,0,0,1-1.725-.081.443.443,0,0,1-.121-.408.139.139,0,0,1,.1-.144C312.319,406.207,313.164,406.616,313.757,406.978Z" transform="translate(-267.654 -232.693)"/>
      <path id="Path_64" class="cls-9" d="M314.846,406.319h.058a.126.126,0,0,0,.057-.1c0-.058,0-1.444-.529-1.909a.6.6,0,0,0-.483-.15.4.4,0,0,0-.385.316c-.109.546.765,1.582,1.225,1.846Zm-.822-1.95a.351.351,0,0,1,.253.1,2.605,2.605,0,0,1,.449,1.518c-.46-.368-1.006-1.15-.937-1.478,0-.052.04-.121.184-.138Z" transform="translate(-268.444 -231.867)"/>
      <path id="Path_65" class="cls-9" d="M302.026,403.99a.121.121,0,0,0-.081-.2c-.236,0-2.3-.1-2.772.408v.034a.362.362,0,0,0-.052.357.638.638,0,0,0,.42.42c.667.207,1.846-.546,2.49-1.012Zm-2.68.362a4.551,4.551,0,0,1,2.249-.339c-.891.61-1.633.9-2.007.782a.414.414,0,0,1-.276-.276.155.155,0,0,1,0-.144Z" transform="translate(-262.301 -231.712)"/>
      <path id="Path_66" class="cls-9" d="M302.447,403.01h0a.132.132,0,0,0,0-.115c-.029-.046-.673-1.15-1.432-1.38a.834.834,0,0,0-.656.081c-.276.161-.293.351-.259.472.15.535,1.616,1.006,2.249,1A.115.115,0,0,0,302.447,403.01Zm-2.065-1.15a.482.482,0,0,1,.109-.081.575.575,0,0,1,.483-.063c.5.132.966.776,1.179,1.093-.684-.075-1.725-.495-1.812-.817a.132.132,0,0,1,.04-.138Z" transform="translate(-262.723 -230.733)"/>
      <path id="Path_67" class="cls-15" d="M308.182,147.33c-.575,2.876-1.817,9.093.178,11,0,0-.782,2.876-6.091,2.876-5.843,0-2.789-2.876-2.789-2.876,3.186-.759,3.106-3.129,2.548-5.349Z" transform="translate(-262.126 -122.752)"/>
      <path id="Path_68" class="cls-13" d="M297.017,134.445a.3.3,0,0,0,.1,0,.23.23,0,0,0,.1-.311,2.266,2.266,0,0,0-1.656-1.265.236.236,0,0,0-.253.2.23.23,0,0,0,.2.253h0a1.806,1.806,0,0,1,1.3,1.018A.23.23,0,0,0,297.017,134.445Z" transform="translate(-260.692 -116.607)"/>
      <path id="Path_69" class="cls-16" d="M294.009,140a10.5,10.5,0,0,1-1.679,2.3,1.674,1.674,0,0,0,1.34.426Z" transform="translate(-259.427 -119.637)"/>
      <path id="Path_70" class="cls-13" d="M295.319,138.312c-.046.385-.293.673-.541.644s-.42-.368-.374-.753.293-.673.575-.644S295.359,137.927,295.319,138.312Z" transform="translate(-260.305 -118.599)"/>
      <path id="Path_71" class="cls-13" d="M294.886,137.357,294,137S294.374,137.759,294.886,137.357Z" transform="translate(-260.136 -118.363)"/>
      <path id="Path_72" class="cls-15" d="M307.446,394.269l-4.693,1.093L299.9,384.573l4.693-1.093Z" transform="translate(-262.643 -223.084)"/>
      <path id="Path_73" class="cls-15" d="M321.984,399.482H317.17l.374-11.152h4.82Z" transform="translate(-269.981 -225.145)"/>
      <path id="Path_74" class="cls-13" d="M311.371,406.75h5.412a.385.385,0,0,1,.385.334l.615,4.279a.771.771,0,0,1-.771.857c-1.886-.029-2.8-.144-5.176-.144-1.467,0-3.606.155-5.625.155s-2.134-2-1.288-2.18a9.444,9.444,0,0,0,5.642-3A1.248,1.248,0,0,1,311.371,406.75Z" transform="translate(-264.567 -232.971)"/>
      <path id="Path_75" class="cls-13" d="M300.064,401.193l4.917-2.26a.38.38,0,0,1,.483.138l2.352,3.635a.776.776,0,0,1-.345,1.1c-1.725.759-2.6,1.041-4.762,2.036-1.329.61-4.026,2.013-5.855,2.876s-2.772-.926-2.082-1.444a12.977,12.977,0,0,0,4.682-5.452A1.231,1.231,0,0,1,300.064,401.193Z" transform="translate(-260.368 -229.634)"/>
      <path id="Path_76" class="cls-17" d="M299.9,384.573l1.53,5.786,4.636-1.317L304.6,383.48Z" transform="translate(-262.643 -223.084)"/>
      <path id="Path_77" class="cls-17" d="M322.5,388.33h-4.82l-.19,5.751h4.82Z" transform="translate(-270.116 -225.145)"/>
      <path id="Path_78" class="cls-13" d="M326.021,168.306c2,.443,4.141,7.638,4.141,7.638l-5.659,6.022s-4.7-6.764-3.738-9.248C321.736,170.124,323.634,167.789,326.021,168.306Z" transform="translate(-271.453 -131.633)"/>
      <path id="Path_79" class="cls-18" d="M322.8,175.9c-1.012-.926-1.7-.65-2.163.086-.46,2.139,2.266,6.62,3.365,8.316C324.512,182.274,325.093,178.007,322.8,175.9Z" transform="translate(-271.434 -134.639)"/>
      <path id="Path_80" class="cls-13" d="M285.485,167.578s-2.3.805,2.3,29.073H307.34c-.328-7.96-.339-12.871,3.451-29.217a57.675,57.675,0,0,0-8.311-1.093,61.767,61.767,0,0,0-8.88,0C289.81,166.693,285.485,167.578,285.485,167.578Z" transform="translate(-256.274 -130.761)"/>
      <path id="Path_81" class="cls-18" d="M285.6,185.052c.127,1.375.293,2.922.512,4.67,1.6-1.444,2.916-5.55,2.433-7.943A14.143,14.143,0,0,0,285.6,185.052Z" transform="translate(-256.567 -137.388)"/>
      <path id="Path_82" class="cls-14" d="M270.18,178.628a85.163,85.163,0,0,1-3.56,7.793,47.887,47.887,0,0,1-4.6,7.477l-.368.454-.184.224c-.063.075-.115.144-.213.247a7.153,7.153,0,0,1-1.15,1.012,9.375,9.375,0,0,1-2.4,1.2,17.559,17.559,0,0,1-4.6.817,34.14,34.14,0,0,1-8.719-.776l.316-2.416c1.323,0,2.709,0,4.026-.109a32.457,32.457,0,0,0,3.945-.437,15.528,15.528,0,0,0,3.531-.989,5.274,5.274,0,0,0,1.271-.771,2.63,2.63,0,0,0,.4-.414s.069-.092.115-.155l.132-.19.27-.38a57.024,57.024,0,0,0,3.848-6.965c1.15-2.444,2.3-4.981,3.353-7.477Z" transform="translate(-239.054 -135.26)"/>
      <path id="Path_83" class="cls-13" d="M281.963,168.487c-2.4.575-5.343,7.155-5.343,7.155l4.969,7.3s6.62-8.334,5.832-10.876C286.616,169.419,284.89,167.774,281.963,168.487Z" transform="translate(-252.752 -131.67)"/>
      <path id="Path_84" class="cls-15" d="M243.961,207.1l-4.147-1.915L239.4,209.3s3.451,1.018,5.176,0Z" transform="translate(-236.938 -147.33)"/>
      <path id="Path_85" class="cls-15" d="M235.517,204.46l-.4,3.14,2.462,1.4.414-4.124Z" transform="translate(-235.12 -147.024)"/>
      <path id="Path_86" class="cls-15" d="M308.4,133.6c-.88,4.7-1.15,6.712-3.842,8.846-4.026,3.209-9.633,1.1-10.174-3.761-.495-4.383,1.024-11.33,5.9-12.653A6.516,6.516,0,0,1,308.4,133.6Z" transform="translate(-260.262 -113.601)"/>
      <path id="Path_87" class="cls-13" d="M298.957,132.528c-.27,2.4-.374,8.627,4.894,8.822,6.447.236,8.38-5.274,7.8-7.477,3.359-2.732,3.842-7.431.069-11.025s-12.078-1.587-14.378,1.915C294.431,129.106,298.957,132.528,298.957,132.528Z" transform="translate(-261.142 -111.544)"/>
      <path id="Path_88" class="cls-9" d="M312.02,123.523c-.311-2.531-.069-4.273,2.3-4.273s5.6.857,6.787,3.278,1.283,6.211-2.024,5.826S312.394,126.548,312.02,123.523Z" transform="translate(-267.747 -110.821)"/>
      <path id="Path_89" class="cls-13" d="M318.424,116.687c-.575-3.014,2.122-11.5,8.673-12.078,3.037-.259,4.44,3.008,2.876,3.549,2.876-.035,4.716,3.767,2.036,4.336,2.117,1.357,1.593,4.141-1.426,5.51C328.334,119.039,319.2,120.862,318.424,116.687Z" transform="translate(-270.481 -104.595)"/>
      <path id="Path_90" class="cls-13" d="M325.454,126.691a10.872,10.872,0,0,1-5.682-1.225,2.813,2.813,0,0,1-1.352-2.186.15.15,0,0,1,.132-.155.138.138,0,0,1,.155.132,2.565,2.565,0,0,0,1.225,1.973c2.605,1.725,8.627,1.15,10.5.575a3.981,3.981,0,0,0,2.939-2.743,2.381,2.381,0,0,0-.96-2.3.138.138,0,0,1,0-.2.144.144,0,0,1,.2,0,2.68,2.68,0,0,1,1.064,2.605,4.237,4.237,0,0,1-3.129,2.962,18.8,18.8,0,0,1-5.1.564Z" transform="translate(-270.511 -111.36)"/>
      <path id="Path_91" class="cls-15" d="M297.835,139.452a3.537,3.537,0,0,0-.615,2.594c.19,1.208,1.363,1.288,2.214.518s1.593-2.162.966-3.163a1.507,1.507,0,0,0-2.565.052Z" transform="translate(-261.486 -119.089)"/>
      <path id="Path_92" class="cls-9" d="M298.89,219.16s2.8,33.064,5.7,51.7c2.341,15.051,4.193,50.232,4.193,50.232h6.568s2.335-34.128,1.15-49.013c-3.008-37.671,3.7-40.742-3.2-52.912Z" transform="translate(-262.214 -153.27)"/>
      <path id="Path_93" class="cls-18" d="M308.686,240.89a32.092,32.092,0,0,0-6.206,9.363c.765,7.431,1.674,15.678,2.64,22.9A63.482,63.482,0,0,0,308.686,240.89Z" transform="translate(-263.739 -162.502)"/>
      <path id="Path_94" class="cls-9" d="M285.712,218.8s-6.068,36.112-7.022,52.389c2.381,15.051,12.124,46.867,12.124,46.867l5.976-2.168s-3.307-34.692-6.9-44.187c8.092-27.244,14.039-34.134,12.308-52.693C298.049,219.007,285.712,218.8,285.712,218.8Z" transform="translate(-253.632 -153.117)"/>
      <path id="Path_95" class="cls-13" d="M297.619,390.142l8.075-2.191-.46-3.221-8.644,2.341Z" transform="translate(-261.237 -223.616)"/>
      <path id="Path_96" class="cls-13" d="M314.486,394.232h8.368l.437-2.933-8.851-.3Z" transform="translate(-268.821 -226.279)"/>
      <path id="Path_97" class="cls-9" d="M309.319,217.068l.88,1.754c.069.138-.092.276-.316.276H289.362c-.173,0-.322-.086-.334-.2l-.178-1.725c0-.121.144-.224.334-.224H309A.362.362,0,0,1,309.319,217.068Z" transform="translate(-257.948 -152.329)"/>
      <path id="Path_98" class="cls-19" d="M309.319,217.068l.88,1.754c.069.138-.092.276-.316.276H289.362c-.173,0-.322-.086-.334-.2l-.178-1.725c0-.121.144-.224.334-.224H309A.362.362,0,0,1,309.319,217.068Z" transform="translate(-257.948 -152.329)"/>
      <path id="Path_99" class="cls-9" d="M319.474,219.122H320c.109,0,.19-.058.184-.121l-.253-2.3c0-.069-.1-.121-.2-.121H319.2c-.1,0-.184.052-.178.121l.247,2.3C319.279,219.076,319.371,219.122,319.474,219.122Z" transform="translate(-270.766 -152.174)"/>
      <path id="Path_100"  class="cls-9" d="M300.911,181.107a.3.3,0,0,1-.282-.213c-1.875-6.936-5.751-12.653-7.632-13.516a.656.656,0,0,0-.489-.081.288.288,0,1,1-.236-.523,1.15,1.15,0,0,1,.966.081c1.99.943,5.924,6.579,7.891,13.671,1.409,0,3.583-.19,4.112-.236.656-.782,5.475-6.81,3.675-13.406a.282.282,0,0,1,.2-.351.288.288,0,0,1,.351.2c2.007,7.339-3.813,13.958-3.876,14.022a.265.265,0,0,1-.184.1C305.38,180.854,302.51,181.107,300.911,181.107Z" transform="translate(-259.323 -130.906)"/>
      <path id="Path_101"  class="cls-9" d="M315.015,189.454c-3.134-5.872-4.417-6.286-4.975-8.173a9.777,9.777,0,0,1,1.783-2.876c-.38-.109-1.2-.27-1.725-.368.057-.259.121-.512.178-.759a5.487,5.487,0,0,0-1.725.081v-.575a7.477,7.477,0,0,0-2.226-.144q.1.408.19.828c-.575.109-1.449.288-1.869.408a8.281,8.281,0,0,1,1.754,3.2c-1.691,2.9-8.259,21.573,2.427,23.005S318.144,195.332,315.015,189.454Z" transform="translate(-263.898 -135.193)"/>
      <path id="Path_102"  class="cls-20" d="M315.015,189.454c-3.134-5.872-4.417-6.286-4.975-8.173a9.777,9.777,0,0,1,1.783-2.876c-.38-.109-1.2-.27-1.725-.368.057-.259.121-.512.178-.759a5.487,5.487,0,0,0-1.725.081v-.575a7.477,7.477,0,0,0-2.226-.144q.1.408.19.828c-.575.109-1.449.288-1.869.408a8.281,8.281,0,0,1,1.754,3.2c-1.691,2.9-8.259,21.573,2.427,23.005S318.144,195.332,315.015,189.454Z" transform="translate(-263.898 -135.193)"/>
      <path id="Path_103"  class="cls-9" d="M308.2,183.31a3.617,3.617,0,0,0-.086.9c0,.213.575.357,1.214.42s3.318.167,3.232-.132.132-.707.144-.96-1.064-.265-1.967-.23S308.373,182.988,308.2,183.31Z" transform="translate(-266.13 -137.981)"/>
      <path id="Path_104"  class="cls-9" d="M297.127,219.122h.529c.1,0,.184-.058.178-.121l-.247-2.3c0-.069-.1-.121-.207-.121h-.512c-.1,0-.184.052-.178.121l.247,2.3C296.926,219.076,297.018,219.122,297.127,219.122Z" transform="translate(-261.279 -152.174)"/>
    </g>
  </g>
</svg>
